<svg width="17" height="19" viewBox="0 0 17 19" fill="none" xmlns="http://www.w3.org/2000/svg">
<path d="M11.4914 13.2479C11.6402 13.1292 11.7751 12.9912 12.0449 12.7152L15.4105 9.27237C15.4918 9.18916 15.4538 9.04802 15.3442 9.0091C14.9471 8.86818 14.4306 8.60362 13.9475 8.10937C13.4643 7.61512 13.2057 7.08675 13.0679 6.68058C13.0306 6.57047 12.8884 6.53316 12.8071 6.6163L9.44504 10.0556C9.17522 10.3316 9.04031 10.4696 8.92428 10.6218C8.78741 10.8013 8.67007 10.9955 8.57433 11.201C8.49317 11.3752 8.43283 11.5604 8.31217 11.9307L8.15624 12.4092L7.90832 13.1701L7.67585 13.8835C7.61646 14.0657 7.66283 14.2667 7.79561 14.4025C7.92839 14.5383 8.1248 14.5858 8.30295 14.525L9.00036 14.2872L9.74414 14.0336L10.2119 13.8741C10.5739 13.7506 10.7549 13.6889 10.9252 13.6059C11.1261 13.5079 11.316 13.3879 11.4914 13.2479Z" fill="white"/>
<path d="M16.4619 8.19675C17.1799 7.46232 17.1799 6.27158 16.4619 5.53715C15.744 4.80272 14.58 4.80272 13.862 5.53715L13.7557 5.64598C13.65 5.75405 13.6022 5.90337 13.6283 6.05223C13.6447 6.14571 13.6751 6.28237 13.7304 6.44545C13.841 6.77157 14.0499 7.19968 14.4433 7.60212C14.8367 8.00456 15.2552 8.21823 15.574 8.33138C15.7334 8.38795 15.867 8.41905 15.9584 8.43583C16.1034 8.46245 16.249 8.41461 16.352 8.3092L16.4619 8.19675Z" fill="white"/>
<path fill-rule="evenodd" clip-rule="evenodd" d="M0.995837 1.65738C0 2.67608 0 4.31567 0 7.59483V11.0729C0 14.3521 0 15.9917 0.995837 17.0104C1.99167 18.0291 3.59445 18.0291 6.8 18.0291H8.5C11.7056 18.0291 13.3083 18.0291 14.3042 17.0104C15.284 16.008 15.2997 14.4045 15.3 11.2295L12.9045 13.6801C12.6751 13.9148 12.4873 14.1071 12.2752 14.2763C12.0267 14.4746 11.7579 14.6445 11.4734 14.7832C11.2306 14.9016 10.9785 14.9875 10.6707 15.0923L8.70578 15.7623C8.06949 15.9793 7.36797 15.8099 6.89369 15.3247C6.41942 14.8395 6.25382 14.1219 6.46592 13.471L6.69839 12.7576L7.10224 11.5182L7.12087 11.461C7.22335 11.1461 7.30728 10.8882 7.423 10.6398C7.55858 10.3488 7.72475 10.0738 7.91857 9.81956C8.08401 9.60259 8.27196 9.41046 8.50144 9.17588L11.9069 5.69222L12.852 4.72545L12.9601 4.61483C13.5682 3.99277 14.3653 3.68183 15.1623 3.68199C15.0337 2.78591 14.785 2.14926 14.3042 1.65738C13.3083 0.638672 11.7056 0.638672 8.5 0.638672H6.8C3.59445 0.638672 1.99167 0.638672 0.995837 1.65738ZM3.6125 6.72531C3.6125 6.36514 3.89792 6.07317 4.25 6.07317H9.775C10.1271 6.07317 10.4125 6.36514 10.4125 6.72531C10.4125 7.08548 10.1271 7.37745 9.775 7.37745H4.25C3.89792 7.37745 3.6125 7.08548 3.6125 6.72531ZM3.6125 10.2034C3.6125 9.84322 3.89792 9.55125 4.25 9.55125H6.375C6.72708 9.55125 7.0125 9.84322 7.0125 10.2034C7.0125 10.5636 6.72708 10.8555 6.375 10.8555H4.25C3.89792 10.8555 3.6125 10.5636 3.6125 10.2034ZM3.6125 13.6815C3.6125 13.3213 3.89792 13.0293 4.25 13.0293H5.525C5.87708 13.0293 6.1625 13.3213 6.1625 13.6815C6.1625 14.0416 5.87708 14.3336 5.525 14.3336H4.25C3.89792 14.3336 3.6125 14.0416 3.6125 13.6815Z" fill="white"/>
</svg>
